<svg height="512" viewBox="0 0 512 512" width="512" xmlns="http://www.w3.org/2000/svg"><g id="flat"><rect fill="#0296e5" height="352" rx="18" width="464" x="24" y="40"/><path d="m56 72h400v288h-400z" fill="#43dcfe"/><path d="m88 120h336v176h-336z" fill="#04957c"/><path d="m88 288h336v8h-336z" fill="#03705d"/><path d="m80 296h352v32h-352z" fill="#5f4623"/><rect fill="#fbb540" height="128" rx="48" width="96" x="120" y="168"/><path d="m184 256v9.88a23.975 23.975 0 0 1 -32 0v-9.88z" fill="#f6bb92"/><path d="m152 256h32v32h-32z" fill="#fdc9a6"/><path d="m184 256v9.88a23.975 23.975 0 0 1 -32 0v-9.88z" fill="#f6bb92"/><path d="m184 440h144l8 32h-160z" fill="#0296e5"/><path d="m272 392v8a16 16 0 0 1 -32 0v-8h-24v48h80v-48z" fill="#026ca2"/><path d="m272 296a8.007 8.007 0 0 1 -7.7-10.2l16-56a8 8 0 1 1 15.384 4.4l-16 56a8 8 0 0 1 -7.684 5.8z" fill="#eaeae8"/><path d="m312 208a8 8 0 0 1 -7.153-4.422l-16-32a8 8 0 0 1 14.31-7.156l7.363 14.725 9.892-29.677a8 8 0 0 1 7.588-5.47h64a8 8 0 0 1 0 16h-58.234l-14.176 42.53a8 8 0 0 1 -7.023 5.449c-.19.014-.38.021-.567.021z" fill="#eaeae8"/><path d="m375.314 188 6.343-6.343a8 8 0 0 0 -11.314-11.314l-6.343 6.343-6.343-6.343a8 8 0 0 0 -11.314 11.314l6.343 6.343-6.343 6.343a8 8 0 0 0 11.314 11.314l6.343-6.343 6.343 6.343a8 8 0 1 0 11.314-11.314z" fill="#eaeae8"/><g fill="#03705d"><path d="m328 240h-8a8 8 0 0 1 0-16h8a8 8 0 0 1 0 16z"/><path d="m392 240h-40a8 8 0 0 1 0-16h40a8 8 0 0 1 0 16z"/><path d="m360 272h-40a8 8 0 0 1 0-16h40a8 8 0 0 1 0 16z"/></g><path d="m184 280 26.274 4.379a26 26 0 0 1 21.726 25.646v17.975l-24 32h-104v-49.975a26 26 0 0 1 21.726-25.646l26.274-4.379a19.23 19.23 0 0 0 32 0z" fill="#ff6268"/><path d="m136 360h-32v-48l32 8z" fill="#fdc9a6"/><path d="m240 360h-32l-4.8-24-3.2-16 32-8z" fill="#fdc9a6"/><path d="m168 264a24 24 0 0 1 -24-24v-16l32-16 16 16v16a24 24 0 0 1 -24 24z" fill="#fdc9a6"/><path d="m200 320v40h8z" fill="#d32b39"/><path d="m232 360 16-48 8-24h32v24l-16 8-8 40z" fill="#fdc9a6"/></g></svg>